<svg id="Layer_1" data-name="Layer 1" xmlns="http://www.w3.org/2000/svg" viewBox="0 0 100 100"><defs><style>.cls-1{fill:#525252;}</style></defs><title>Insta-03</title><path class="cls-1" d="M50,33.81A16.19,16.19,0,1,0,66.19,50,16.19,16.19,0,0,0,50,33.81Z"/><path class="cls-1" d="M84.55,0H15.45A15.45,15.45,0,0,0,0,15.45v69.1A15.45,15.45,0,0,0,15.45,100h69.1A15.45,15.45,0,0,0,100,84.55V15.45A15.45,15.45,0,0,0,84.55,0ZM50,73.33A23.33,23.33,0,1,1,73.33,50,23.34,23.34,0,0,1,50,73.33ZM78,27.91a7.38,7.38,0,1,1,7.38-7.38A7.37,7.37,0,0,1,78,27.91Z"/></svg>