<svg viewBox="0 0 100 100" xmlns="http://www.w3.org/2000/svg"><path d="m84.55 0h-69.1a15.45 15.45 0 0 0 -15.45 15.45v69.1a15.45 15.45 0 0 0 15.45 15.45h69.1a15.45 15.45 0 0 0 15.45-15.45v-69.1a15.45 15.45 0 0 0 -15.45-15.45z" fill="#fff"/><path d="m56.26 45.66v-.14s-.06.09-.08.14z" fill="#fff"/><path d="m22.27 39.84h13.32v40.06h-13.32z"/><path d="m28.92 34.38h-.08c-4.47 0-7.37-3.09-7.37-6.92s3-6.93 7.54-6.93 7.36 3 7.45 6.93-2.89 6.92-7.54 6.92z"/><path d="m83.61 79.9h-13.33v-21.44c0-5.39-1.92-9.05-6.74-9.05a7.3 7.3 0 0 0 -6.83 4.87 9.18 9.18 0 0 0 -.46 3.25v22.37h-13.31s.18-36.3 0-40.06h13.32v5.68a13.23 13.23 0 0 1 12-6.62c8.78 0 15.35 5.73 15.35 18z"/></svg>