<svg id="Layer_1" data-name="Layer 1" xmlns="http://www.w3.org/2000/svg" viewBox="0 0 100 100"><defs><style>.cls-1{fill:#525252;}</style></defs><title>Linked-01</title><path class="cls-1" d="M84.55,0H15.45A15.45,15.45,0,0,0,0,15.45v69.1A15.45,15.45,0,0,0,15.45,100h69.1A15.45,15.45,0,0,0,100,84.55V15.45A15.45,15.45,0,0,0,84.55,0Zm-49,79.9H22.27V39.84H35.59ZM28.92,34.38h-.08c-4.47,0-7.37-3.09-7.37-6.92s3-6.93,7.54-6.93,7.36,3,7.45,6.93S33.57,34.38,28.92,34.38ZM83.61,79.9H70.28V58.46c0-5.39-1.92-9.05-6.74-9.05a7.29,7.29,0,0,0-6.83,4.87,9.21,9.21,0,0,0-.46,3.25V79.9H42.94s.18-36.3,0-40.06H56.26v5.68a13.23,13.23,0,0,1,12-6.62c8.78,0,15.35,5.73,15.35,18Z"/></svg>